<svg width="161" height="160" viewBox="0 0 161 160" fill="none" xmlns="http://www.w3.org/2000/svg">
	<circle cx="80.5" cy="80" r="70" fill="#DFE3EB" />
	<path d="M121 80C121 85.2529 119.965 90.4543 117.955 95.3073C115.945 100.16 112.999 104.57 109.284 108.284C105.57 111.999 101.16 114.945 96.3073 116.955C91.4543 118.965 86.2529 120 81 120C75.7471 120 70.5457 118.965 65.6927 116.955C60.8396 114.945 56.4301 111.999 52.7157 108.284C49.0014 104.57 46.055 100.16 44.0448 95.3073C42.0346 90.4543 41 85.2529 41 80C41 74.7471 42.0346 69.5457 44.0448 64.6927C46.055 59.8396 49.0014 55.4301 52.7157 51.7157C56.4301 48.0014 60.8396 45.055 65.6927 43.0448C70.5457 41.0346 75.7471 40 81 40C86.2529 40 91.4543 41.0346 96.3073 43.0448C101.16 45.055 105.57 48.0014 109.284 51.7157C112.999 55.4301 115.945 59.8396 117.955 64.6927C119.965 69.5457 121 74.7471 121 80L121 80Z" stroke="white" stroke-width="16" stroke-linecap="round" stroke-linejoin="round" />
	<path d="M81 40C73.9785 40 67.0808 41.8483 61 45.359C54.9192 48.8697 49.8697 53.9192 46.359 60" stroke="#C3CAD9" stroke-width="8" stroke-linecap="round" stroke-linejoin="round" />
	<path d="M42.363 69.6472C40.5457 76.4295 40.5457 83.5705 42.363 90.3528" stroke="#EF671E" stroke-width="8" stroke-linecap="round" stroke-linejoin="round" />
	<path d="M46.359 100C48.1068 103.027 50.2439 105.812 52.7157 108.284" stroke="#8459A5" stroke-width="8" stroke-linecap="round" stroke-linejoin="round" />
	<path d="M61 114.641C65.5491 117.267 70.571 118.972 75.779 119.658C80.9869 120.343 86.2789 119.997 91.3528 118.637" stroke="#FC9734" stroke-width="8" stroke-linecap="round" stroke-linejoin="round" />
	<path d="M101 114.641C107.081 111.13 112.13 106.081 115.641 100" stroke="#556FCD" stroke-width="8" stroke-linecap="round" stroke-linejoin="round" />
	<path d="M119.637 90.3528C120.997 85.2789 121.343 79.9869 120.658 74.779C119.972 69.571 118.267 64.5491 115.641 60" stroke="#87D7EF" stroke-width="8" stroke-linecap="round" stroke-linejoin="round" />
	<path d="M109.284 51.7157C104.319 46.7508 98.135 43.1803 91.3528 41.363" stroke="#CB55CD" stroke-width="8" stroke-linecap="round" stroke-linejoin="round" />
	<path fill-rule="evenodd" clip-rule="evenodd" d="M93.5 77.5C93.5 84.4035 87.9035 90 81 90C74.0965 90 68.5 84.4035 68.5 77.5C68.5 70.5965 74.0965 65 81 65C87.9035 65 93.5 70.5965 93.5 77.5Z" fill="white" />
	<circle cx="81" cy="80" r="56" stroke="#202C44" stroke-width="4" />
	<path d="M41 40L121 120" stroke="#202C44" stroke-width="4" />
</svg>
