<?xml version="1.0" standalone="no"?>
<!DOCTYPE svg PUBLIC "-//W3C//DTD SVG 20010904//EN"
 "http://www.w3.org/TR/2001/REC-SVG-20010904/DTD/svg10.dtd">
<svg version="1.0" xmlns="http://www.w3.org/2000/svg"
 width="48.000000pt" height="48.000000pt" viewBox="0 0 48.000000 48.000000"
 preserveAspectRatio="xMidYMid meet">

<g transform="translate(0.000000,48.000000) scale(0.100000,-0.100000)"
fill="#000000" stroke="none">
<path d="M0 240 l0 -240 240 0 240 0 0 240 0 240 -240 0 -240 0 0 -240z m222
162 c27 -5 57 -17 68 -27 24 -21 65 -106 75 -154 7 -31 5 -33 -11 -26 -11 5
-39 9 -64 10 -59 2 -80 12 -80 39 0 11 -5 28 -11 36 -8 12 -9 10 -4 -7 10 -37
9 -83 -3 -95 -8 -8 -26 -1 -67 28 -31 21 -61 46 -66 56 -22 40 -1 137 33 152
13 6 48 2 130 -12z m110 -218 c17 -9 46 -14 64 -12 43 5 43 1 -1 -18 -19 -8
-35 -20 -35 -28 0 -28 -41 -66 -70 -66 -33 0 -56 30 -45 58 6 15 8 15 21 -2
21 -29 37 -7 32 43 -2 23 -2 41 0 41 2 0 17 -7 34 -16z"/>
<path d="M268 293 c7 -3 16 -2 19 1 4 3 -2 6 -13 5 -11 0 -14 -3 -6 -6z"/>
</g>
</svg>
