<?xml version="1.0" encoding="UTF-8"?>
<svg id="Layer_1" xmlns="http://www.w3.org/2000/svg" version="1.1" viewBox="0 0 160 160">
  <!-- Generator: Adobe Illustrator 29.1.0, SVG Export Plug-In . SVG Version: 2.1.0 Build 142)  -->
  <defs>
    <style>
      .st0 {
        fill: #ba0000;
      }
    </style>
  </defs>
  <path class="st0" d="M17.9,25.4v47.4c0,19.7,5.9,37.9,17.7,54,11.6,16,26.6,26.5,44.4,31,17.8-4.6,32.8-15,44.4-31,11.7-16.1,17.7-34.3,17.7-54V25.4L80,2.1,17.9,25.4ZM128.7,72.9c0,16.1-4.6,31-13.7,44.2-9.1,13.2-20.8,22.2-34.7,26.6h-.4c0,.1-.4,0-.4,0-13.9-4.4-25.6-13.4-34.7-26.6-9.1-13.2-13.7-28.1-13.7-44.2v-38.3l48.7-18.3,48.7,18.3v38.3Z"/>
  <g>
    <path class="st0" d="M114.2,91.5c-.9,4.1-7.6,4.9-10.8,3.4-1.1,6.7-4,16.4-11.9,17.5-8.5,1.2-9.9-3.7-11.8-10.7l4.7-2.7c-.7,2.7,1,6.9,4.3,6s3.7-11.7,3.2-14.4-3-2.4-1-3.7c7,4.5,15,8.9,23.3,4.7Z"/>
    <path class="st0" d="M86.6,53.2c-4.7-2.7-8-1.5-12.5-2.3-5-.9-10.7-3.7-15.6-3.4-9.9.7-13.5,15.2-12.4,23.3,1.2,9.4,10.1,12.3,16.8,17,2.3,1.6,4.2,5.2,7.5,4.7,6.7-3.3,2.2-18.4.4-24,4.9,2.1,3.9,13.2,6.4,15.2,1.1.9,7,3,8.5,3.1,3.8.2,5.5-2.8,9.3-1.9,1.2.3,8.9,5.8,9.3,5.3-1.4-10.1-8.3-31.7-17.5-37ZM83.8,68.5c2.2-.1,4.1-.3,5.4,1.7-1.6,2.9-5,1.1-5.4-1.7Z"/>
  </g>
</svg>