<?xml version="1.0" encoding="UTF-8"?>
<svg id="Layer_1" xmlns="http://www.w3.org/2000/svg" xmlns:xlink="http://www.w3.org/1999/xlink" version="1.1" viewBox="0 0 160 160">
  <!-- Generator: Adobe Illustrator 29.1.0, SVG Export Plug-In . SVG Version: 2.1.0 Build 142)  -->
  <defs>
    <style>
      .st0 {
        fill: none;
      }

      .st1 {
        fill: #ba0000;
      }

      .st2 {
        fill: #99a6b6;
      }

      .st3 {
        fill: #fff;
      }

      .st4 {
        clip-path: url(#clippath);
      }
    </style>
    <clipPath id="clippath">
      <circle class="st0" cx="80.7" cy="78.9" r="76.1"/>
    </clipPath>
  </defs>
  <circle class="st1" cx="80.7" cy="78.9" r="76.1"/>
  <g>
    <path class="st3" d="M134.7,97c-1.4,6.4-12,7.7-17.1,5.3-1.8,10.6-6.4,25.9-18.8,27.7s-15.6-5.9-18.6-16.9l7.4-4.3c-1.1,4.3,1.6,10.9,6.7,9.5s5.8-18.5,5-22.8c-.5-3-4.8-3.7-1.6-5.9,11.1,7.1,23.7,14,36.8,7.5Z"/>
    <path class="st3" d="M91.1,36.5c-7.5-4.3-12.7-2.4-19.8-3.7-7.9-1.5-16.8-5.8-24.7-5.3-15.6,1.1-21.3,24-19.6,36.8,2,14.8,16,19.4,26.5,26.9,3.6,2.6,6.7,8.2,11.8,7.4,10.6-5.2,3.4-29.1.6-37.9,7.8,3.3,6.1,20.8,10.1,24,1.7,1.4,11,4.7,13.4,4.9,6,.3,8.7-4.4,14.7-3,1.8.4,14,9.1,14.6,8.3-2.2-16-13.1-50-27.6-58.3ZM86.7,60.7c3.4-.2,6.4-.5,8.5,2.7-2.6,4.5-7.9,1.7-8.5-2.7Z"/>
  </g>
  <g class="st4">
    <rect class="st2" x="74.3" y="-7.4" width="11.3" height="174.7" transform="translate(193.1 80) rotate(135)"/>
  </g>
</svg>